<svg id="visual" viewBox="0 0 900 600" width="900" height="600" xmlns="http://www.w3.org/2000/svg" xmlns:xlink="http://www.w3.org/1999/xlink" version="1.1"><path d="M0 375L21.5 386.7C43 398.3 86 421.7 128.8 418.5C171.7 415.3 214.3 385.7 257.2 378C300 370.3 343 384.7 385.8 385.8C428.7 387 471.3 375 514.2 370.5C557 366 600 369 642.8 371C685.7 373 728.3 374 771.2 373.3C814 372.7 857 370.3 878.5 369.2L900 368L900 601L878.5 601C857 601 814 601 771.2 601C728.3 601 685.7 601 642.8 601C600 601 557 601 514.2 601C471.3 601 428.7 601 385.8 601C343 601 300 601 257.2 601C214.3 601 171.7 601 128.8 601C86 601 43 601 21.5 601L0 601Z" fill="#9985d5"></path><path d="M0 476L21.5 472.5C43 469 86 462 128.8 462.2C171.7 462.3 214.3 469.7 257.2 469.5C300 469.3 343 461.7 385.8 456.5C428.7 451.3 471.3 448.7 514.2 443.5C557 438.3 600 430.7 642.8 423.7C685.7 416.7 728.3 410.3 771.2 411.3C814 412.3 857 420.7 878.5 424.8L900 429L900 601L878.5 601C857 601 814 601 771.2 601C728.3 601 685.7 601 642.8 601C600 601 557 601 514.2 601C471.3 601 428.7 601 385.8 601C343 601 300 601 257.2 601C214.3 601 171.7 601 128.8 601C86 601 43 601 21.5 601L0 601Z" fill="#917bdd"></path><path d="M0 440L21.5 450.5C43 461 86 482 128.8 481.7C171.7 481.3 214.3 459.7 257.2 452.7C300 445.7 343 453.3 385.8 456C428.7 458.7 471.3 456.3 514.2 458.3C557 460.3 600 466.7 642.8 467.3C685.7 468 728.3 463 771.2 460.8C814 458.7 857 459.3 878.5 459.7L900 460L900 601L878.5 601C857 601 814 601 771.2 601C728.3 601 685.7 601 642.8 601C600 601 557 601 514.2 601C471.3 601 428.7 601 385.8 601C343 601 300 601 257.2 601C214.3 601 171.7 601 128.8 601C86 601 43 601 21.5 601L0 601Z" fill="#8871e4"></path><path d="M0 490L21.5 496.7C43 503.3 86 516.7 128.8 519.7C171.7 522.7 214.3 515.3 257.2 507.5C300 499.7 343 491.3 385.8 489.2C428.7 487 471.3 491 514.2 490.8C557 490.7 600 486.3 642.8 493.8C685.7 501.3 728.3 520.7 771.2 522.8C814 525 857 510 878.5 502.5L900 495L900 601L878.5 601C857 601 814 601 771.2 601C728.3 601 685.7 601 642.8 601C600 601 557 601 514.2 601C471.3 601 428.7 601 385.8 601C343 601 300 601 257.2 601C214.3 601 171.7 601 128.8 601C86 601 43 601 21.5 601L0 601Z" fill="#7d67eb"></path><path d="M0 573L21.5 569.3C43 565.7 86 558.3 128.8 550.5C171.7 542.7 214.3 534.3 257.2 536.3C300 538.3 343 550.7 385.8 553.3C428.7 556 471.3 549 514.2 550.8C557 552.7 600 563.3 642.8 566.8C685.7 570.3 728.3 566.7 771.2 564.2C814 561.7 857 560.3 878.5 559.7L900 559L900 601L878.5 601C857 601 814 601 771.2 601C728.3 601 685.7 601 642.8 601C600 601 557 601 514.2 601C471.3 601 428.7 601 385.8 601C343 601 300 601 257.2 601C214.3 601 171.7 601 128.8 601C86 601 43 601 21.5 601L0 601Z" fill="#715df2"></path></svg>