<svg id="visual" viewBox="0 0 900 600" width="900" height="600" xmlns="http://www.w3.org/2000/svg" xmlns:xlink="http://www.w3.org/1999/xlink" version="1.1"><path d="M0 554L21.5 556.3C43 558.7 86 563.3 128.8 562.7C171.7 562 214.3 556 257.2 554.5C300 553 343 556 385.8 556.3C428.7 556.7 471.3 554.3 514.2 553.5C557 552.7 600 553.3 642.8 553.7C685.7 554 728.3 554 771.2 553.8C814 553.7 857 553.3 878.5 553.2L900 553L900 601L878.5 601C857 601 814 601 771.2 601C728.3 601 685.7 601 642.8 601C600 601 557 601 514.2 601C471.3 601 428.7 601 385.8 601C343 601 300 601 257.2 601C214.3 601 171.7 601 128.8 601C86 601 43 601 21.5 601L0 601Z" fill="#9985d5"></path><path d="M0 574L21.5 573.3C43 572.7 86 571.3 128.8 571.5C171.7 571.7 214.3 573.3 257.2 573.3C300 573.3 343 571.7 385.8 570.5C428.7 569.3 471.3 568.7 514.2 567.7C557 566.7 600 565.3 642.8 564C685.7 562.7 728.3 561.3 771.2 561.5C814 561.7 857 563.3 878.5 564.2L900 565L900 601L878.5 601C857 601 814 601 771.2 601C728.3 601 685.7 601 642.8 601C600 601 557 601 514.2 601C471.3 601 428.7 601 385.8 601C343 601 300 601 257.2 601C214.3 601 171.7 601 128.8 601C86 601 43 601 21.5 601L0 601Z" fill="#917bdd"></path><path d="M0 567L21.5 569.2C43 571.3 86 575.7 128.8 575.7C171.7 575.7 214.3 571.3 257.2 569.8C300 568.3 343 569.7 385.8 570.2C428.7 570.7 471.3 570.3 514.2 570.8C557 571.3 600 572.7 642.8 572.8C685.7 573 728.3 572 771.2 571.5C814 571 857 571 878.5 571L900 571L900 601L878.5 601C857 601 814 601 771.2 601C728.3 601 685.7 601 642.8 601C600 601 557 601 514.2 601C471.3 601 428.7 601 385.8 601C343 601 300 601 257.2 601C214.3 601 171.7 601 128.8 601C86 601 43 601 21.5 601L0 601Z" fill="#8871e4"></path><path d="M0 577L21.5 578.3C43 579.7 86 582.3 128.8 583C171.7 583.7 214.3 582.3 257.2 580.8C300 579.3 343 577.7 385.8 577.2C428.7 576.7 471.3 577.3 514.2 577.3C557 577.3 600 576.7 642.8 578.2C685.7 579.7 728.3 583.3 771.2 583.7C814 584 857 581 878.5 579.5L900 578L900 601L878.5 601C857 601 814 601 771.2 601C728.3 601 685.7 601 642.8 601C600 601 557 601 514.2 601C471.3 601 428.7 601 385.8 601C343 601 300 601 257.2 601C214.3 601 171.7 601 128.8 601C86 601 43 601 21.5 601L0 601Z" fill="#7d67eb"></path><path d="M0 594L21.5 593.2C43 592.3 86 590.7 128.8 589C171.7 587.3 214.3 585.7 257.2 586.2C300 586.7 343 589.3 385.8 590C428.7 590.7 471.3 589.3 514.2 589.7C557 590 600 592 642.8 592.7C685.7 593.3 728.3 592.7 771.2 592.2C814 591.7 857 591.3 878.5 591.2L900 591L900 601L878.5 601C857 601 814 601 771.2 601C728.3 601 685.7 601 642.8 601C600 601 557 601 514.2 601C471.3 601 428.7 601 385.8 601C343 601 300 601 257.2 601C214.3 601 171.7 601 128.8 601C86 601 43 601 21.5 601L0 601Z" fill="#715df2"></path></svg>